<?xml version="1.0" encoding="UTF-8" standalone="no"?>
<svg
   xmlns:dc="http://purl.org/dc/elements/1.1/"
   xmlns:cc="http://creativecommons.org/ns#"
   xmlns:rdf="http://www.w3.org/1999/02/22-rdf-syntax-ns#"
   xmlns:svg="http://www.w3.org/2000/svg"
   xmlns="http://www.w3.org/2000/svg"
   xmlns:sodipodi="http://sodipodi.sourceforge.net/DTD/sodipodi-0.dtd"
   xmlns:inkscape="http://www.inkscape.org/namespaces/inkscape"
   version="1.1"
   x="0px"
   y="0px"
   viewBox="0 0 100 125"
   enable-background="new 0 0 100 100"
   xml:space="preserve"
   id="svg12"
   sodipodi:docname="noun_Apple_1055087.svg"
   inkscape:version="0.92.3 (2405546, 2018-03-11)"><metadata
     id="metadata18"><rdf:RDF><cc:Work
         rdf:about=""><dc:format>image/svg+xml</dc:format><dc:type
           rdf:resource="http://purl.org/dc/dcmitype/StillImage" /></cc:Work></rdf:RDF></metadata><defs
     id="defs16" /><sodipodi:namedview
     pagecolor="#ffffff"
     bordercolor="#666666"
     borderopacity="1"
     objecttolerance="10"
     gridtolerance="10"
     guidetolerance="10"
     inkscape:pageopacity="0"
     inkscape:pageshadow="2"
     inkscape:window-width="1920"
     inkscape:window-height="1017"
     id="namedview14"
     showgrid="false"
     inkscape:zoom="1.888"
     inkscape:cx="50"
     inkscape:cy="62.5"
     inkscape:window-x="-8"
     inkscape:window-y="-8"
     inkscape:window-maximized="1"
     inkscape:current-layer="svg12" /><g
     id="g6"><path
       d="M29.195,49.485c-0.657-0.457-1.559-0.294-2.016,0.361c-2.589,3.721-4.016,8.52-4.016,13.514   c0,0.799,0.648,1.449,1.448,1.449s1.448-0.649,1.448-1.449c0-4.408,1.242-8.619,3.497-11.858   C30.014,50.845,29.852,49.943,29.195,49.485z"
       id="path2" /><path
       d="M65.342,21.675c5.563-5.553,4.937-14.897,4.908-15.293c-0.053-0.715-0.622-1.283-1.337-1.336   c-0.394-0.035-9.755-0.656-15.318,4.896c-2.377,2.374-3.619,5.437-4.265,8.2c-0.889-2.742-2.092-5.423-3.732-7.923   c-0.438-0.668-1.337-0.855-2.005-0.417c-0.669,0.439-0.856,1.337-0.417,2.006c4.694,7.157,5.565,16.122,5.66,23.485   c-1.011-0.116-2.066-0.329-2.61-0.588c-2.665-1.263-5.473-1.905-8.348-1.905c-13.32,0-24.157,13.949-24.157,31.094   c0,17.146,10.837,31.095,24.157,31.095c2.873,0,5.682-0.642,8.347-1.906c0.918-0.435,2.557-0.684,3.666-0.684l0.119,0.001h0.001   h0.001l0.019-0.001c1.094,0.013,2.8,0.236,3.744,0.684c2.666,1.264,5.475,1.906,8.348,1.906c13.32,0,24.156-13.949,24.156-31.095   c0-17.145-10.836-31.094-24.156-31.094c-2.875,0-5.683,0.642-8.347,1.905c-0.558,0.265-1.31,0.445-2.043,0.557   c-0.034-2.722-0.177-5.657-0.561-8.656h0.042C53.975,26.607,60.881,26.129,65.342,21.675z M55.641,11.993   c3.509-3.502,9.183-4.028,11.738-4.077c-0.049,2.551-0.577,8.21-4.083,11.709h0c-3.508,3.502-9.182,4.028-11.737,4.077   C51.607,21.151,52.136,15.492,55.641,11.993z M55.016,37.324c2.273-1.079,4.664-1.625,7.106-1.625   c11.723,0,21.26,12.649,21.26,28.197c0,15.549-9.538,28.198-21.26,28.198c-2.441,0-4.832-0.547-7.107-1.626   c-1.441-0.683-3.578-0.992-4.983-0.962H50.03h-0.024H49.99h-0.001c-1.393-0.032-3.562,0.278-5.005,0.962   c-2.275,1.079-4.666,1.626-7.106,1.626c-11.723,0-21.261-12.649-21.261-28.198c0-15.548,9.538-28.197,21.261-28.197   c2.442,0,4.833,0.546,7.107,1.625c1.481,0.702,4.043,0.964,5.309,0.964C51.534,38.287,53.514,38.035,55.016,37.324z"
       id="path4" /></g></svg>