<?xml version="1.0" encoding="UTF-8" standalone="no"?>
<svg
   xmlns:dc="http://purl.org/dc/elements/1.1/"
   xmlns:cc="http://creativecommons.org/ns#"
   xmlns:rdf="http://www.w3.org/1999/02/22-rdf-syntax-ns#"
   xmlns:svg="http://www.w3.org/2000/svg"
   xmlns="http://www.w3.org/2000/svg"
   xmlns:sodipodi="http://sodipodi.sourceforge.net/DTD/sodipodi-0.dtd"
   xmlns:inkscape="http://www.inkscape.org/namespaces/inkscape"
   version="1.1"
   x="0px"
   y="0px"
   viewBox="0 0 100 125"
   enable-background="new 0 0 100 100"
   xml:space="preserve"
   id="svg8"
   sodipodi:docname="noun_Cherry_1055089.svg"
   inkscape:version="0.92.3 (2405546, 2018-03-11)"><metadata
     id="metadata14"><rdf:RDF><cc:Work
         rdf:about=""><dc:format>image/svg+xml</dc:format><dc:type
           rdf:resource="http://purl.org/dc/dcmitype/StillImage" /></cc:Work></rdf:RDF></metadata><defs
     id="defs12" /><sodipodi:namedview
     pagecolor="#ffffff"
     bordercolor="#666666"
     borderopacity="1"
     objecttolerance="10"
     gridtolerance="10"
     guidetolerance="10"
     inkscape:pageopacity="0"
     inkscape:pageshadow="2"
     inkscape:window-width="640"
     inkscape:window-height="480"
     id="namedview10"
     showgrid="false"
     inkscape:zoom="1.888"
     inkscape:cx="50"
     inkscape:cy="62.5"
     inkscape:window-x="0"
     inkscape:window-y="0"
     inkscape:window-maximized="0"
     inkscape:current-layer="svg8" /><path
     d="M34.984,94.03c5.771,0,10.463-1.96,13.459-5.562C51.587,92.439,56.438,95,61.885,95c9.456,0,17.149-7.693,17.149-17.15  c0-9.14-7.193-16.611-16.213-17.101L52.607,39.491c3.883,2.387,7.497,3.592,10.813,3.592c2.029,0,3.948-0.448,5.749-1.346  c9.356-4.665,13.274-21.338,12.956-34.868c0-0.002,0-0.003,0-0.005c0-0.009,0-0.018,0-0.027c-0.001-0.034-0.009-0.066-0.013-0.1  c-0.005-0.059-0.009-0.118-0.022-0.175c-0.008-0.035-0.021-0.067-0.031-0.1c-0.017-0.059-0.034-0.117-0.059-0.173  c-0.007-0.016-0.017-0.031-0.025-0.047c-0.191-0.394-0.552-0.7-1.015-0.793c-6.575-1.326-16.997,0.13-24.341,6.466  c-3.676,3.171-6.227,7.305-7.605,12.21c-1.042-2.425-2.554-4.52-4.525-6.23c-5.461-4.738-13.389-5.726-18.502-4.643  c-0.435,0.052-0.8,0.299-1.023,0.652c-0.003,0.005-0.006,0.01-0.009,0.015c-0.042,0.068-0.079,0.138-0.109,0.213  c-0.012,0.027-0.02,0.056-0.03,0.084c-0.019,0.055-0.036,0.11-0.049,0.168c-0.01,0.047-0.015,0.095-0.021,0.143  c-0.004,0.033-0.012,0.064-0.014,0.097c-0.352,7.654,1.17,21.693,9.104,25.771c1.4,0.72,2.899,1.079,4.493,1.079  c1.776,0,3.671-0.452,5.676-1.343L34.051,60.74c-9.01,0.491-16.194,7.975-16.194,17.13C17.856,87.083,25.22,94.03,34.984,94.03z   M37.228,60.836l11.239-23.261l11.188,23.289c-4.52,0.591-8.489,2.94-11.195,6.347C45.666,63.681,41.667,61.411,37.228,60.836z   M76.131,77.85c0,7.856-6.391,14.247-14.246,14.247c-5.099,0-9.567-2.701-12.085-6.738c-0.052-0.12-0.121-0.232-0.204-0.336  c-1.236-2.11-1.958-4.556-1.958-7.173c0-2.632,0.73-5.092,1.98-7.21c0.069-0.09,0.129-0.185,0.174-0.287  c2.516-4.043,6.988-6.75,12.092-6.75C69.74,63.604,76.131,69.996,76.131,77.85z M58.517,14.112  c6.544-5.645,15.526-6.676,20.724-6.001c0.059,12.768-3.744,27.226-11.366,31.028c-3.802,1.895-8.434,1.171-13.806-2.149  c0.938-1.421,2.148-2.648,3.577-3.574c3.127-2.029,4.692-4.035,6.673-6.574c0.294-0.377,0.6-0.769,0.925-1.178  c0.497-0.628,0.392-1.541-0.236-2.039c-0.628-0.498-1.541-0.393-2.039,0.236c-0.329,0.416-0.64,0.814-0.938,1.196  c-1.955,2.505-3.247,4.16-5.965,5.923c-1.755,1.139-3.253,2.637-4.408,4.378c-0.299-0.219-0.603-0.452-0.907-0.686  C50.427,25.762,53.033,18.844,58.517,14.112z M35.166,37.813c-5.282-2.715-7.744-12.851-7.562-21.89  c3.915-0.513,10.38,0.171,14.984,4.165c3.463,3.005,5.207,7.328,5.215,12.859c-0.005,0.003-0.01,0.007-0.016,0.009  c-0.04,0.021-0.077,0.045-0.115,0.07c-0.043,0.028-0.084,0.056-0.123,0.088c-0.033,0.027-0.064,0.058-0.095,0.088  c-0.037,0.037-0.073,0.073-0.105,0.113c-0.026,0.032-0.05,0.067-0.074,0.102c-0.031,0.045-0.059,0.09-0.085,0.138  c-0.008,0.016-0.02,0.029-0.028,0.045l-0.55,1.139c-0.255-0.18-0.51-0.361-0.778-0.523c-2.31-1.396-3.412-2.711-5.079-4.702  l-0.806-0.957c-0.52-0.61-1.435-0.684-2.046-0.165c-0.611,0.52-0.685,1.435-0.165,2.046l0.792,0.941  c1.721,2.054,3.079,3.677,5.803,5.323c0.009,0.005,0.016,0.012,0.025,0.017C40.745,38.724,37.664,39.095,35.166,37.813z   M34.984,63.595c4.744,0,9.083,2.3,11.773,6.193c-1.287,2.405-2.022,5.149-2.022,8.062c0,2.899,0.729,5.629,2.004,8.026  c-2.386,3.381-6.508,5.25-11.756,5.25c-8.11,0-14.225-5.7-14.225-13.257C20.759,69.998,27.14,63.595,34.984,63.595z"
     id="path2" /></svg>