<?xml version="1.0" encoding="UTF-8" standalone="no"?>
<svg
   xmlns:dc="http://purl.org/dc/elements/1.1/"
   xmlns:cc="http://creativecommons.org/ns#"
   xmlns:rdf="http://www.w3.org/1999/02/22-rdf-syntax-ns#"
   xmlns:svg="http://www.w3.org/2000/svg"
   xmlns="http://www.w3.org/2000/svg"
   xmlns:sodipodi="http://sodipodi.sourceforge.net/DTD/sodipodi-0.dtd"
   xmlns:inkscape="http://www.inkscape.org/namespaces/inkscape"
   version="1.1"
   x="0px"
   y="0px"
   viewBox="0 0 24 30"
   style="enable-background:new 0 0 24 24;"
   xml:space="preserve"
   id="svg8"
   sodipodi:docname="home.svg"
   inkscape:version="0.92.3 (2405546, 2018-03-11)"><metadata
     id="metadata14"><rdf:RDF><cc:Work
         rdf:about=""><dc:format>image/svg+xml</dc:format><dc:type
           rdf:resource="http://purl.org/dc/dcmitype/StillImage" /></cc:Work></rdf:RDF></metadata><defs
     id="defs12" /><sodipodi:namedview
     pagecolor="#ffffff"
     bordercolor="#666666"
     borderopacity="1"
     objecttolerance="10"
     gridtolerance="10"
     guidetolerance="10"
     inkscape:pageopacity="0"
     inkscape:pageshadow="2"
     inkscape:window-width="1920"
     inkscape:window-height="1017"
     id="namedview10"
     showgrid="false"
     inkscape:zoom="7.8666667"
     inkscape:cx="12"
     inkscape:cy="25.169492"
     inkscape:window-x="-8"
     inkscape:window-y="-8"
     inkscape:window-maximized="1"
     inkscape:current-layer="svg8" /><path
     d="M21.518,10.401l-9.15-7.785c-0.204-0.173-0.503-0.173-0.707,0l-9.18,7.819c-0.229,0.195-0.257,0.539-0.062,0.768  c0.108,0.127,0.261,0.192,0.415,0.192c0.125,0,0.251-0.043,0.353-0.13l0.072-0.062v9.766c0,0.301,0.244,0.545,0.545,0.545H20.16  c0.301,0,0.545-0.244,0.545-0.545v-9.828l0.107,0.091c0.229,0.195,0.573,0.167,0.768-0.062  C21.775,10.94,21.747,10.596,21.518,10.401z M14.163,20.39H9.802v-6.36h4.361V20.39z M19.615,20.424h-4.361v-6.939  c0-0.301-0.244-0.545-0.545-0.545H9.257c-0.301,0-0.545,0.244-0.545,0.545v6.939H4.351V10.275l7.664-6.528l7.6,6.466V20.424z"
     id="path2" /></svg>