<?xml version="1.0" encoding="UTF-8" standalone="no"?>
<svg
   xmlns:dc="http://purl.org/dc/elements/1.1/"
   xmlns:cc="http://creativecommons.org/ns#"
   xmlns:rdf="http://www.w3.org/1999/02/22-rdf-syntax-ns#"
   xmlns:svg="http://www.w3.org/2000/svg"
   xmlns="http://www.w3.org/2000/svg"
   xmlns:sodipodi="http://sodipodi.sourceforge.net/DTD/sodipodi-0.dtd"
   xmlns:inkscape="http://www.inkscape.org/namespaces/inkscape"
   version="1.1"
   x="0px"
   y="0px"
   viewBox="0 0 100 125"
   enable-background="new 0 0 100 100"
   xml:space="preserve"
   id="svg12"
   sodipodi:docname="noun_Pear_1055094.svg"
   inkscape:version="0.92.3 (2405546, 2018-03-11)"><metadata
     id="metadata18"><rdf:RDF><cc:Work
         rdf:about=""><dc:format>image/svg+xml</dc:format><dc:type
           rdf:resource="http://purl.org/dc/dcmitype/StillImage" /></cc:Work></rdf:RDF></metadata><defs
     id="defs16" /><sodipodi:namedview
     pagecolor="#ffffff"
     bordercolor="#666666"
     borderopacity="1"
     objecttolerance="10"
     gridtolerance="10"
     guidetolerance="10"
     inkscape:pageopacity="0"
     inkscape:pageshadow="2"
     inkscape:window-width="640"
     inkscape:window-height="480"
     id="namedview14"
     showgrid="false"
     inkscape:zoom="1.888"
     inkscape:cx="50"
     inkscape:cy="62.5"
     inkscape:window-x="0"
     inkscape:window-y="0"
     inkscape:window-maximized="0"
     inkscape:current-layer="svg12" /><g
     id="g6"><path
       d="M34.42,53.5c-3.431,4.067-5.289,9.301-5.234,14.741c0.008,0.797,0.656,1.436,1.451,1.436h0.016   c0.801-0.009,1.444-0.665,1.436-1.466c-0.049-4.744,1.567-9.303,4.55-12.838c0.517-0.613,0.439-1.529-0.173-2.046   C35.851,52.809,34.937,52.887,34.42,53.5z"
       id="path2" /><path
       d="M81.587,67.864c0-10.669-4.65-20.071-12.135-24.539c-2.801-1.676-4.632-4.646-5.024-8.168   c-0.339-2.714-1.425-5.221-3.108-7.268c2.192-0.845,4.368-2.079,6.188-3.895c6.397-6.385,5.675-17.152,5.642-17.608   c-0.053-0.717-0.624-1.287-1.34-1.34c-0.456-0.034-11.243-0.754-17.638,5.63c-2.396,2.391-3.793,5.397-4.602,8.246   c-1.006-3.392-2.371-6.381-4.127-9.059c-0.44-0.671-1.339-0.859-2.01-0.418c-0.67,0.439-0.857,1.339-0.418,2.009   c2.055,3.134,3.533,6.762,4.488,11.069c-0.563,0.076-1.122,0.183-1.672,0.326l-0.103,0.031l-0.809,0.28   c-5.707,1.538-9.815,6.301-10.467,12.151l-0.056,0.566c-0.403,3.386-2.077,6.262-4.607,7.899   C22.771,48.44,18.413,57.67,18.413,67.864c0,14.959,9.471,27.129,21.113,27.129c2.514,0,4.971-0.572,7.287-1.692   c0.743-0.35,2.262-0.584,3.214-0.584c1.067,0,2.415,0.252,3.154,0.575c2.289,1.113,4.815,1.701,7.304,1.701   C72.12,94.993,81.587,82.823,81.587,67.864z M56.222,12.731c4.253-4.245,11.181-4.785,14.057-4.814   c-0.03,2.872-0.572,9.781-4.822,14.024c-4.255,4.246-11.185,4.786-14.06,4.815C51.422,23.888,51.955,16.989,56.222,12.731z    M60.484,92.091c-2.052,0-4.14-0.487-6.085-1.431c-1.418-0.624-3.241-0.845-4.372-0.845c-1.053,0-3.106,0.229-4.463,0.866   c-1.933,0.935-3.964,1.41-6.037,1.41c-10.041,0-18.21-10.868-18.21-24.227c0-9.234,3.862-17.537,10.063-21.66   c3.242-2.098,5.392-5.736,5.9-10.009l0.058-0.577c0.517-4.639,3.789-8.428,8.426-9.681l0.848-0.289   c0.471-0.12,0.951-0.203,1.433-0.261c0.396,2.494,0.643,5.198,0.746,8.145c0.027,0.784,0.671,1.401,1.449,1.401l0.051-0.001   c0.801-0.027,1.428-0.7,1.4-1.5c-0.045-1.299-0.119-2.554-0.218-3.769c1.546-0.011,4.039-0.162,6.778-0.82   c1.807,1.757,2.974,4.094,3.294,6.657c0.491,4.411,2.83,8.171,6.418,10.318c6.513,3.887,10.721,12.541,10.721,22.047   C78.684,81.223,70.52,92.091,60.484,92.091z"
       id="path4" /></g></svg>