<?xml version="1.0" encoding="UTF-8" standalone="no"?><svg xmlns="http://www.w3.org/2000/svg" xmlns:xlink="http://www.w3.org/1999/xlink"><symbol viewBox="-12.5 0 125 125" id="apple" xmlns="http://www.w3.org/2000/svg"><path d="M29.195 49.485a1.45 1.45 0 0 0-2.016.361c-2.589 3.721-4.016 8.52-4.016 13.514a1.45 1.45 0 0 0 2.896 0c0-4.408 1.242-8.619 3.497-11.858a1.448 1.448 0 0 0-.361-2.017z"/><path d="M65.342 21.675c5.563-5.553 4.937-14.897 4.908-15.293a1.448 1.448 0 0 0-1.337-1.336c-.394-.035-9.755-.656-15.318 4.896-2.377 2.374-3.619 5.437-4.265 8.2-.889-2.742-2.092-5.423-3.732-7.923a1.45 1.45 0 0 0-2.422 1.589c4.694 7.157 5.565 16.122 5.66 23.485-1.011-.116-2.066-.329-2.61-.588-2.665-1.263-5.473-1.905-8.348-1.905-13.32 0-24.157 13.949-24.157 31.094 0 17.146 10.837 31.095 24.157 31.095 2.873 0 5.682-.642 8.347-1.906.918-.435 2.557-.684 3.666-.684l.119.001h.002l.019-.001c1.094.013 2.8.236 3.744.684 2.666 1.264 5.475 1.906 8.348 1.906 13.32 0 24.156-13.949 24.156-31.095 0-17.145-10.836-31.094-24.156-31.094-2.875 0-5.683.642-8.347 1.905-.558.265-1.31.445-2.043.557-.034-2.722-.177-5.657-.561-8.656h.042c2.761.001 9.667-.477 14.128-4.931zm-9.701-9.682c3.509-3.502 9.183-4.028 11.738-4.077-.049 2.551-.577 8.21-4.083 11.709-3.508 3.502-9.182 4.028-11.737 4.077.048-2.551.577-8.21 4.082-11.709zm-.625 25.331c2.273-1.079 4.664-1.625 7.106-1.625 11.723 0 21.26 12.649 21.26 28.197 0 15.549-9.538 28.198-21.26 28.198-2.441 0-4.832-.547-7.107-1.626-1.441-.683-3.578-.992-4.983-.962H49.989c-1.393-.032-3.562.278-5.005.962-2.275 1.079-4.666 1.626-7.106 1.626-11.723 0-21.261-12.649-21.261-28.198 0-15.548 9.538-28.197 21.261-28.197 2.442 0 4.833.546 7.107 1.625 1.481.702 4.043.964 5.309.964 1.24-.001 3.22-.253 4.722-.964z"/></symbol><symbol viewBox="-12.5 0 125 125" id="cherry" xmlns="http://www.w3.org/2000/svg"><path d="M34.984 94.03c5.771 0 10.463-1.96 13.459-5.562C51.587 92.439 56.438 95 61.885 95c9.456 0 17.149-7.693 17.149-17.15 0-9.14-7.193-16.611-16.213-17.101L52.607 39.491c3.883 2.387 7.497 3.592 10.813 3.592 2.029 0 3.948-.448 5.749-1.346 9.356-4.665 13.274-21.338 12.956-34.868v-.005-.027c-.001-.034-.009-.066-.013-.1-.005-.059-.009-.118-.022-.175-.008-.035-.021-.067-.031-.1A1.306 1.306 0 0 0 82 6.289c-.007-.016-.017-.031-.025-.047a1.442 1.442 0 0 0-1.015-.793c-6.575-1.326-16.997.13-24.341 6.466-3.676 3.171-6.227 7.305-7.605 12.21-1.042-2.425-2.554-4.52-4.525-6.23-5.461-4.738-13.389-5.726-18.502-4.643-.435.052-.8.299-1.023.652l-.009.015a1.378 1.378 0 0 0-.109.213c-.012.027-.02.056-.03.084-.019.055-.036.11-.049.168-.01.047-.015.095-.021.143-.004.033-.012.064-.014.097-.352 7.654 1.17 21.693 9.104 25.771a9.688 9.688 0 0 0 4.493 1.079c1.776 0 3.671-.452 5.676-1.343L34.051 60.74c-9.01.491-16.194 7.975-16.194 17.13-.001 9.213 7.363 16.16 17.127 16.16zm2.244-33.194l11.239-23.261 11.188 23.289a17.132 17.132 0 0 0-11.195 6.347c-2.794-3.53-6.793-5.8-11.232-6.375zM76.131 77.85c0 7.856-6.391 14.247-14.246 14.247-5.099 0-9.567-2.701-12.085-6.738a1.486 1.486 0 0 0-.204-.336 14.144 14.144 0 0 1-1.958-7.173c0-2.632.73-5.092 1.98-7.21.069-.09.129-.185.174-.287 2.516-4.043 6.988-6.75 12.092-6.75 7.856.001 14.247 6.393 14.247 14.247zM58.517 14.112c6.544-5.645 15.526-6.676 20.724-6.001.059 12.768-3.744 27.226-11.366 31.028-3.802 1.895-8.434 1.171-13.806-2.149a12.355 12.355 0 0 1 3.577-3.574c3.127-2.029 4.692-4.035 6.673-6.574.294-.377.6-.769.925-1.178a1.452 1.452 0 0 0-2.275-1.803c-.329.416-.64.814-.938 1.196-1.955 2.505-3.247 4.16-5.965 5.923a15.297 15.297 0 0 0-4.408 4.378 48.178 48.178 0 0 1-.907-.686c-.324-8.91 2.282-15.828 7.766-20.56zM35.166 37.813c-5.282-2.715-7.744-12.851-7.562-21.89 3.915-.513 10.38.171 14.984 4.165 3.463 3.005 5.207 7.328 5.215 12.859-.005.003-.01.007-.016.009-.04.021-.077.045-.115.07a1.367 1.367 0 0 0-.123.088c-.033.027-.064.058-.095.088-.037.037-.073.073-.105.113-.026.032-.05.067-.074.102-.031.045-.059.09-.085.138-.008.016-.02.029-.028.045l-.55 1.139c-.255-.18-.51-.361-.778-.523-2.31-1.396-3.412-2.711-5.079-4.702l-.806-.957a1.452 1.452 0 0 0-2.211 1.881l.792.941c1.721 2.054 3.079 3.677 5.803 5.323l.025.017c-3.613 2.005-6.694 2.376-9.192 1.094zm-.182 25.782c4.744 0 9.083 2.3 11.773 6.193a17.038 17.038 0 0 0-2.022 8.062c0 2.899.729 5.629 2.004 8.026-2.386 3.381-6.508 5.25-11.756 5.25-8.11 0-14.225-5.7-14.225-13.257.001-7.871 6.382-14.274 14.226-14.274z"/></symbol><symbol viewBox="-3 0 30 30" id="home" xmlns="http://www.w3.org/2000/svg"><path d="M21.518 10.401l-9.15-7.785a.546.546 0 0 0-.707 0l-9.18 7.819a.545.545 0 0 0 .706.83l.072-.062v9.766c0 .301.244.545.545.545H20.16a.545.545 0 0 0 .545-.545v-9.828l.107.091a.545.545 0 1 0 .706-.831zm-7.355 9.989H9.802v-6.36h4.361v6.36zm5.452.034h-4.361v-6.939a.545.545 0 0 0-.545-.545H9.257a.545.545 0 0 0-.545.545v6.939H4.351V10.275l7.664-6.528 7.6 6.466v10.211z"/></symbol><symbol viewBox="-12.5 0 125 125" id="pear" xmlns="http://www.w3.org/2000/svg"><path d="M34.42 53.5c-3.431 4.067-5.289 9.301-5.234 14.741a1.45 1.45 0 0 0 1.451 1.436h.016a1.452 1.452 0 0 0 1.436-1.466c-.049-4.744 1.567-9.303 4.55-12.838A1.453 1.453 0 0 0 34.42 53.5z"/><path d="M81.587 67.864c0-10.669-4.65-20.071-12.135-24.539-2.801-1.676-4.632-4.646-5.024-8.168a14.184 14.184 0 0 0-3.108-7.268c2.192-.845 4.368-2.079 6.188-3.895 6.397-6.385 5.675-17.152 5.642-17.608a1.452 1.452 0 0 0-1.34-1.34c-.456-.034-11.243-.754-17.638 5.63-2.396 2.391-3.793 5.397-4.602 8.246-1.006-3.392-2.371-6.381-4.127-9.059a1.451 1.451 0 0 0-2.428 1.591c2.055 3.134 3.533 6.762 4.488 11.069-.563.076-1.122.183-1.672.326l-.103.031-.809.28c-5.707 1.538-9.815 6.301-10.467 12.151l-.056.566c-.403 3.386-2.077 6.262-4.607 7.899-7.018 4.664-11.376 13.894-11.376 24.088 0 14.959 9.471 27.129 21.113 27.129 2.514 0 4.971-.572 7.287-1.692.743-.35 2.262-.584 3.214-.584 1.067 0 2.415.252 3.154.575a16.811 16.811 0 0 0 7.304 1.701c11.635 0 21.102-12.17 21.102-27.129zM56.222 12.731c4.253-4.245 11.181-4.785 14.057-4.814-.03 2.872-.572 9.781-4.822 14.024-4.255 4.246-11.185 4.786-14.06 4.815.025-2.868.558-9.767 4.825-14.025zm4.262 79.36c-2.052 0-4.14-.487-6.085-1.431-1.418-.624-3.241-.845-4.372-.845-1.053 0-3.106.229-4.463.866-1.933.935-3.964 1.41-6.037 1.41-10.041 0-18.21-10.868-18.21-24.227 0-9.234 3.862-17.537 10.063-21.66 3.242-2.098 5.392-5.736 5.9-10.009l.058-.577c.517-4.639 3.789-8.428 8.426-9.681l.848-.289c.471-.12.951-.203 1.433-.261.396 2.494.643 5.198.746 8.145a1.45 1.45 0 0 0 1.449 1.401l.051-.001a1.45 1.45 0 0 0 1.4-1.5 80.843 80.843 0 0 0-.218-3.769 30.635 30.635 0 0 0 6.778-.82 11.196 11.196 0 0 1 3.294 6.657c.491 4.411 2.83 8.171 6.418 10.318 6.513 3.887 10.721 12.541 10.721 22.047 0 13.358-8.164 24.226-18.2 24.226z"/></symbol><symbol viewBox="-64 0 640 640" id="tomato" xmlns="http://www.w3.org/2000/svg"><path d="M316 120h-15v-15c0-8.271 6.729-15 15-15 24.813 0 45-20.187 45-45S340.813 0 316 0c-57.897 0-105 47.103-105 105v15h-15C88.192 120 0 208.215 0 316c0 107.808 88.214 196 196 196h120c107.808 0 196-88.215 196-196 0-107.809-88.214-196-196-196zm-112.917 30H226c8.284 0 15-6.716 15-15v-30c0-41.355 33.645-75 75-75 8.271 0 15 6.729 15 15s-6.729 15-15 15c-24.813 0-45 20.187-45 45v30c0 8.284 6.716 15 15 15h22.917c26.665 0 51.314 11.077 68.721 30h-39.96a15 15 0 0 0-12.963 22.546c4.17 7.165 6.285 14.72 6.285 22.454v15h-15c-24.813 0-45-20.187-45-45 0-8.284-6.716-15-15-15s-15 6.716-15 15c0 24.813-20.187 45-45 45h-15v-15c0-7.734 2.115-15.288 6.286-22.454A15 15 0 0 0 174.323 180h-39.961c17.407-18.923 42.056-30 68.721-30zM316 482H196c-91.533 0-166-74.467-166-166 0-53.287 25.244-100.783 64.394-131.177-1.723 3.189-6.071 10.105-1.153 18.063 2.733 4.422 7.561 7.014 12.76 7.014h46.564A73.133 73.133 0 0 0 151 225v30c0 8.284 6.716 15 15 15h30c24.507 0 46.305-11.814 60-30.047C269.695 258.186 291.493 270 316 270h30c8.284 0 15-6.716 15-15v-30c0-5.078-.523-10.085-1.564-15H406a15 15 0 0 0 13.417-21.708 125.26 125.26 0 0 0-1.81-3.469C456.756 215.217 482 262.713 482 316c0 91.533-74.467 166-166 166z"/></symbol></svg>